<?xml version="1.0" encoding="utf-8"?>
<!-- Generator: Adobe Illustrator 23.0.5, SVG Export Plug-In . SVG Version: 6.00 Build 0)  -->
<svg version="1.1" id="Layer_1" xmlns="http://www.w3.org/2000/svg" xmlns:xlink="http://www.w3.org/1999/xlink" x="0px" y="0px"
	 viewBox="0 0 16 16" style="enable-background:new 0 0 16 16;" xml:space="preserve">
<style type="text/css">
	.st0{fill:url(#SVGID_1_);}
	.st1{fill:url(#SVGID_2_);}
	.st2{fill:url(#SVGID_3_);}
	.st3{fill:url(#SVGID_4_);}
</style>
<g>
	<g>
		<linearGradient id="SVGID_1_" gradientUnits="userSpaceOnUse" x1="6.6111" y1="1.2227" x2="6.6111" y2="6.4043">
			<stop  offset="8.204796e-07" style="stop-color:#EF4F87"/>
			<stop  offset="1" style="stop-color:#F04F48"/>
		</linearGradient>
		<path class="st0" d="M4.88,5.34L6,3.71L5.05,2.25C4.97,2.11,4.9,1.99,4.85,1.89c-0.04-0.1-0.07-0.2-0.07-0.29
			c0-0.1,0.04-0.18,0.13-0.26C5,1.26,5.11,1.22,5.23,1.22c0.14,0,0.25,0.04,0.33,0.12c0.08,0.08,0.19,0.24,0.33,0.46l0.75,1.22
			l0.8-1.22c0.07-0.1,0.12-0.19,0.17-0.26C7.66,1.47,7.7,1.41,7.74,1.37s0.09-0.08,0.15-0.11C7.94,1.23,8,1.22,8.08,1.22
			c0.13,0,0.23,0.04,0.31,0.11C8.47,1.41,8.51,1.5,8.51,1.61c0,0.15-0.09,0.36-0.26,0.62L7.26,3.71l1.06,1.64
			c0.1,0.14,0.17,0.26,0.21,0.36C8.57,5.8,8.6,5.89,8.6,5.97c0,0.08-0.02,0.15-0.06,0.22S8.44,6.31,8.37,6.35S8.22,6.4,8.13,6.4
			c-0.1,0-0.18-0.02-0.24-0.06C7.83,6.3,7.77,6.25,7.73,6.2S7.61,6.02,7.5,5.85L6.62,4.46L5.68,5.89C5.61,6.01,5.56,6.09,5.53,6.13
			C5.5,6.18,5.46,6.22,5.42,6.26s-0.09,0.08-0.15,0.1S5.13,6.4,5.05,6.4c-0.12,0-0.23-0.04-0.31-0.11C4.67,6.22,4.63,6.11,4.63,5.96
			C4.63,5.79,4.71,5.59,4.88,5.34z"/>
	</g>
</g>
<g>
	<g>
		<linearGradient id="SVGID_2_" gradientUnits="userSpaceOnUse" x1="4.1941" y1="9.7773" x2="4.1941" y2="14.959">
			<stop  offset="8.204796e-07" style="stop-color:#EF4F87"/>
			<stop  offset="1" style="stop-color:#F04F48"/>
		</linearGradient>
		<path class="st1" d="M2.46,13.9l1.12-1.64l-0.94-1.46c-0.09-0.14-0.16-0.26-0.2-0.36c-0.04-0.1-0.07-0.2-0.07-0.29
			c0-0.1,0.04-0.18,0.13-0.26c0.09-0.08,0.19-0.11,0.31-0.11c0.14,0,0.25,0.04,0.33,0.12c0.08,0.08,0.19,0.24,0.33,0.46l0.75,1.22
			l0.8-1.22c0.07-0.1,0.12-0.19,0.17-0.26c0.05-0.07,0.09-0.13,0.14-0.18s0.09-0.08,0.15-0.11c0.05-0.02,0.12-0.04,0.19-0.04
			c0.13,0,0.23,0.04,0.31,0.11c0.08,0.08,0.12,0.17,0.12,0.27c0,0.15-0.09,0.36-0.26,0.62l-0.99,1.48L5.9,13.9
			c0.1,0.14,0.17,0.26,0.21,0.36c0.04,0.09,0.06,0.18,0.06,0.27c0,0.08-0.02,0.15-0.06,0.22c-0.04,0.07-0.09,0.12-0.16,0.16
			c-0.07,0.04-0.15,0.06-0.24,0.06c-0.1,0-0.18-0.02-0.24-0.06c-0.07-0.04-0.12-0.09-0.16-0.15c-0.04-0.06-0.12-0.17-0.23-0.34
			L4.2,13.02l-0.94,1.43c-0.07,0.11-0.13,0.19-0.16,0.24C3.08,14.73,3.04,14.78,3,14.82c-0.04,0.04-0.09,0.08-0.15,0.1
			c-0.06,0.03-0.13,0.04-0.21,0.04c-0.12,0-0.23-0.04-0.31-0.11c-0.08-0.08-0.12-0.18-0.12-0.33C2.21,14.35,2.29,14.14,2.46,13.9z"
			/>
	</g>
</g>
<g>
	<g>
		<linearGradient id="SVGID_3_" gradientUnits="userSpaceOnUse" x1="9.0447" y1="9.9268" x2="9.0447" y2="14.917">
			<stop  offset="8.204796e-07" style="stop-color:#EF4F87"/>
			<stop  offset="1" style="stop-color:#F04F48"/>
		</linearGradient>
		<path class="st2" d="M9.04,14.92c-1.23,0-1.85-0.82-1.85-2.46c0-1.69,0.62-2.53,1.85-2.53c1.23,0,1.85,0.84,1.85,2.53
			C10.89,14.1,10.28,14.92,9.04,14.92z M9.04,14.06c0.6,0,0.9-0.53,0.9-1.6c0-1.11-0.3-1.67-0.9-1.67s-0.9,0.56-0.9,1.67
			C8.14,13.52,8.44,14.06,9.04,14.06z"/>
	</g>
</g>
<g>
	<g>
		<linearGradient id="SVGID_4_" gradientUnits="userSpaceOnUse" x1="11.4624" y1="1.3726" x2="11.4624" y2="6.3628">
			<stop  offset="8.204796e-07" style="stop-color:#EF4F87"/>
			<stop  offset="1" style="stop-color:#F04F48"/>
		</linearGradient>
		<path class="st3" d="M11.46,6.36c-1.23,0-1.85-0.82-1.85-2.46c0-1.69,0.62-2.53,1.85-2.53c1.23,0,1.85,0.84,1.85,2.53
			C13.31,5.54,12.7,6.36,11.46,6.36z M11.46,5.5c0.6,0,0.9-0.53,0.9-1.6c0-1.11-0.3-1.67-0.9-1.67s-0.9,0.56-0.9,1.67
			C10.56,4.97,10.86,5.5,11.46,5.5z"/>
	</g>
</g>
</svg>
