<?xml version="1.0" encoding="utf-8"?>
<!-- Generator: Adobe Illustrator 23.0.5, SVG Export Plug-In . SVG Version: 6.00 Build 0)  -->
<svg version="1.1" id="Layer_1" xmlns="http://www.w3.org/2000/svg" xmlns:xlink="http://www.w3.org/1999/xlink" x="0px" y="0px"
	 viewBox="0 0 1080 360" style="enable-background:new 0 0 1080 360;" xml:space="preserve">
<style type="text/css">
	.st0{fill:#FAEBD7;stroke:#A69C8F;stroke-width:7;stroke-miterlimit:10;}
</style>
<path class="st0" d="M48.3,198h996.5h4.1c0,0,2.8-0.1,2.8-2.3s-14.8-6.5-14.9-10.1c-0.1-3.5,17.2-3.6,14.9-6.6
	c-2.3-3-15.4-4.9-15.5-7.3c-0.1-2.4,15.5-6.3,15.5-8s-2.9-1.7-4.3-1.7c-1.4,0-1012.3,0-1012.3,0s-3.2,0-3.2,1.2
	c0,1.3,15.9,4.1,15.9,7.3c0,3.2-15.9,4.1-15.9,6.8s14.1,5.6,14.1,10.1c0,4.5-14.1,6.4-14.1,8.5s1.6,2,3.2,2
	C36.8,198,48.3,198,48.3,198z"/>
</svg>
